HIERARCHY
ROOT joint_0
{
	OFFSET 0.000000 0.000000 0.000000
	CHANNELS 6 Xposition Yposition Zposition Zrotation Yrotation Xrotation 
	JOINT joint_1
	{
		OFFSET 6.590088 -1.122192 114.019043
		CHANNELS 3 Zrotation Yrotation Xrotation
		JOINT joint_2
		{
			OFFSET -5.956055 -0.820435 104.151001
			CHANNELS 3 Zrotation Yrotation Xrotation
			JOINT joint_3
			{
				OFFSET -7.343506 -1.103027 103.942993
				CHANNELS 3 Zrotation Yrotation Xrotation
				JOINT joint_4
				{
					OFFSET 3.109131 -2.857056 147.715942
					CHANNELS 3 Zrotation Yrotation Xrotation
					JOINT joint_5
					{
						OFFSET 28.592285 -2.852295 87.703979
						CHANNELS 3 Zrotation Yrotation Xrotation
						End Site
						{
							OFFSET 0.000000 0.000000 0.000000
						}
					}
				}
				JOINT joint_6
				{
					OFFSET -0.332520 -33.687378 82.401978
					CHANNELS 3 Zrotation Yrotation Xrotation
					JOINT joint_7
					{
						OFFSET -7.397461 -168.719177 -22.750977
						CHANNELS 3 Zrotation Yrotation Xrotation
						JOINT joint_8
						{
							OFFSET 17.065918 -24.903137 -272.721069
							CHANNELS 3 Zrotation Yrotation Xrotation
							JOINT joint_9
							{
								OFFSET 33.311279 -37.031616 -278.192993
								CHANNELS 3 Zrotation Yrotation Xrotation
								End Site
								{
									OFFSET 0.000000 0.000000 0.000000
								}
							}
						}
					}
				}
				JOINT joint_10
				{
					OFFSET 3.914307 30.461670 83.552979
					CHANNELS 3 Zrotation Yrotation Xrotation
					JOINT joint_11
					{
						OFFSET 15.543701 166.845459 -30.963013
						CHANNELS 3 Zrotation Yrotation Xrotation
						JOINT joint_12
						{
							OFFSET 35.734863 35.017700 -269.786011
							CHANNELS 3 Zrotation Yrotation Xrotation
							JOINT joint_13
							{
								OFFSET 70.506592 13.977783 -273.320007
								CHANNELS 3 Zrotation Yrotation Xrotation
								End Site
								{
									OFFSET 0.000000 0.000000 0.000000
								}
							}
						}
					}
				}
			}
		}
	}
	JOINT joint_14
	{
		OFFSET -0.314697 -95.093994 -116.004028
		CHANNELS 3 Zrotation Yrotation Xrotation
		JOINT joint_15
		{
			OFFSET -22.490723 2.017883 -455.510986
			CHANNELS 3 Zrotation Yrotation Xrotation
			JOINT joint_16
			{
				OFFSET -46.427490 7.144104 -496.360985
				CHANNELS 3 Zrotation Yrotation Xrotation
				JOINT joint_17
				{
					OFFSET 209.055420 -37.122803 -85.191002
					CHANNELS 3 Zrotation Yrotation Xrotation
					End Site
					{
						OFFSET 0.000000 0.000000 0.000000
					}
				}
			}
		}
	}
	JOINT joint_18
	{
		OFFSET 5.652832 94.642578 -116.244019
		CHANNELS 3 Zrotation Yrotation Xrotation
		JOINT joint_19
		{
			OFFSET -12.379883 -7.332642 -455.843994
			CHANNELS 3 Zrotation Yrotation Xrotation
			JOINT joint_20
			{
				OFFSET -45.227051 -8.172241 -496.457985
				CHANNELS 3 Zrotation Yrotation Xrotation
				JOINT joint_21
				{
					OFFSET 210.522949 -11.530396 -88.809004
					CHANNELS 3 Zrotation Yrotation Xrotation
					End Site
					{
						OFFSET 0.000000 0.000000 0.000000
					}
				}
			}
		}
	}
}
MOTION
Frames: 9
Frame Time: 0.016667
-2601.344727 994.610291 1183.754028 -2.435178 -1.304484 -0.106874 -0.182265 3.560085 3.030044 -0.443781 -0.660687 -0.675486 -0.345211 0.748213 0.511481 0.414131 3.004841 -0.924431 0.000000 0.000000 0.000000 -1.746694 0.535982 -1.356388 -0.031794 0.274381 -0.587216 -0.140132 3.781275 2.880338 0.000000 0.000000 0.000000 3.030267 0.519848 -0.616917 -0.208280 0.139558 -2.970124 1.151963 3.889465 3.652472 0.000000 0.000000 0.000000 0.601853 -0.188855 -1.575626 0.577786 -0.989423 -1.171126 0.455800 3.325230 0.776102 0.000000 0.000000 0.000000 2.797086 0.022313 1.456324 2.767399 0.770054 2.064805 2.871369 0.003628 1.205368 0.000000 0.000000 0.000000 
-2601.271729 994.673340 1183.692993 -2.399409 -1.359583 -0.108965 -0.184517 3.494382 2.984490 -0.441245 -0.652284 -0.667324 -0.343812 0.740565 0.505913 0.419179 2.995270 -0.941821 0.000000 0.000000 0.000000 -1.730536 0.532073 -1.276300 -0.035948 0.278483 -0.638647 -0.139753 3.755602 2.856969 0.000000 0.000000 0.000000 3.037518 0.519741 -0.611873 -0.213196 0.138265 -2.976825 1.140456 3.866055 3.616271 0.000000 0.000000 0.000000 0.592721 -0.154698 -1.572118 0.569230 -0.923600 -1.177495 0.446195 3.298657 0.767482 0.000000 0.000000 0.000000 2.785212 0.078945 1.443641 2.755402 0.777303 2.090879 2.862392 0.003607 1.201583 0.000000 0.000000 0.000000 
-2601.187744 994.726318 1183.633057 -2.357483 -1.416735 -0.111406 -0.190104 3.428833 2.937874 -0.441836 -0.645382 -0.655896 -0.345949 0.733524 0.497500 0.424321 2.989299 -0.959054 0.000000 0.000000 0.000000 -1.712592 0.533365 -1.198713 -0.039146 0.287404 -0.679951 -0.137715 3.725459 2.842300 0.000000 0.000000 0.000000 3.051406 0.521007 -0.598502 -0.218911 0.137907 -2.985385 1.127703 3.843460 3.574929 0.000000 0.000000 0.000000 0.581958 -0.117610 -1.568251 0.559011 -0.856657 -1.182896 0.435059 3.272116 0.758246 0.000000 0.000000 0.000000 2.770982 0.139157 1.428398 2.740936 0.781542 2.122687 2.851489 0.005665 1.197098 0.000000 0.000000 0.000000 
-2601.087891 994.771301 1183.571045 -2.309333 -1.475046 -0.114198 -0.197910 3.361614 2.892522 -0.444711 -0.638110 -0.644122 -0.350429 0.726179 0.488723 0.429373 2.986513 -0.975594 0.000000 0.000000 0.000000 -1.702826 0.542367 -1.127335 -0.040906 0.302077 -0.710454 -0.132310 3.678375 2.837215 0.000000 0.000000 0.000000 3.067660 0.525643 -0.581012 -0.224251 0.140904 -2.993659 1.113349 3.814365 3.528535 0.000000 0.000000 0.000000 0.569092 -0.078934 -1.564203 0.546654 -0.787281 -1.187168 0.421932 3.244184 0.747952 0.000000 0.000000 0.000000 2.754943 0.199535 1.412663 2.724552 0.788367 2.156547 2.839024 0.005821 1.191852 0.000000 0.000000 0.000000 
-2600.959961 994.806335 1183.498047 -2.255623 -1.535218 -0.119151 -0.207873 3.295751 2.852743 -0.450328 -0.631713 -0.635785 -0.357179 0.719710 0.482997 0.433259 2.984885 -0.988228 0.000000 0.000000 0.000000 -1.724909 0.569803 -1.074647 -0.039916 0.328729 -0.715583 -0.119843 3.579211 2.835395 0.000000 0.000000 0.000000 3.084668 0.540627 -0.565888 -0.224916 0.154678 -3.001127 1.099229 3.755691 3.488699 0.000000 0.000000 0.000000 0.554452 -0.036935 -1.557243 0.532671 -0.716154 -1.191290 0.407227 3.214738 0.736749 0.000000 0.000000 0.000000 2.738359 0.253670 1.403006 2.707536 0.813141 2.184974 2.825960 -0.003863 1.185817 0.000000 0.000000 0.000000 
-2600.795898 994.830383 1183.406982 -2.198991 -1.594820 -0.129388 -0.216524 3.230641 2.822351 -0.455668 -0.627543 -0.634597 -0.362701 0.718283 0.482631 0.434072 2.978352 -0.991840 0.000000 0.000000 0.000000 -1.783995 0.608721 -1.031274 -0.037552 0.360837 -0.708296 -0.104209 3.458023 2.835891 0.000000 0.000000 0.000000 3.088957 0.560692 -0.564908 -0.219549 0.175128 -3.002489 1.089140 3.674011 3.468805 0.000000 0.000000 0.000000 0.538995 0.003962 -1.542956 0.518352 -0.640331 -1.196685 0.392010 3.185271 0.725333 0.000000 0.000000 0.000000 2.722005 0.299305 1.401884 2.690588 0.856140 2.211274 2.813311 -0.023962 1.179383 0.000000 0.000000 0.000000 
-2600.603760 994.844360 1183.303955 -2.136791 -1.655908 -0.141677 -0.226812 3.166021 2.797152 -0.463168 -0.623889 -0.636555 -0.369966 0.718044 0.484844 0.433465 2.973144 -0.990753 0.000000 0.000000 0.000000 -1.877023 0.666033 -1.007389 -0.032273 0.404475 -0.674764 -0.081450 3.285261 2.840226 0.000000 0.000000 0.000000 3.092209 0.590716 -0.565200 -0.209636 0.206437 -3.003680 1.079232 3.563115 3.455175 0.000000 0.000000 0.000000 0.521608 0.047545 -1.526054 0.502220 -0.562360 -1.201550 0.375064 3.153551 0.712814 0.000000 0.000000 0.000000 2.705043 0.338139 1.406773 2.672935 0.917470 2.232087 2.800010 -0.054409 1.172110 0.000000 0.000000 0.000000 
-2600.392822 994.850403 1183.209961 -2.066639 -1.723020 -0.149119 -0.246390 3.099328 2.772821 -0.479842 -0.616348 -0.636005 -0.386789 0.711428 0.485671 0.436955 2.982446 -1.000152 0.000000 0.000000 0.000000 -2.014444 0.772877 -1.042157 -0.018337 0.484773 -0.563593 -0.035737 2.934792 2.845469 0.000000 0.000000 0.000000 3.127992 0.653035 -0.541199 -0.194429 0.268366 -3.016981 1.060300 3.380997 3.420386 0.000000 0.000000 0.000000 0.501212 0.103692 -1.517162 0.482336 -0.490170 -1.201040 0.355080 3.116694 0.698145 0.000000 0.000000 0.000000 2.688291 0.367824 1.418549 2.655673 1.010884 2.228891 2.785708 -0.100553 1.163578 0.000000 0.000000 0.000000 
-2600.167969 994.849426 1183.134033 -1.982363 -1.799129 -0.146784 -0.278349 3.030756 2.747632 -0.508503 -0.602256 -0.630372 -0.416409 0.697106 0.482266 0.446628 3.008150 -1.026150 0.000000 0.000000 0.000000 -2.208390 0.940744 -1.171476 0.004927 0.606841 -0.302425 0.027244 2.377095 2.773523 0.000000 0.000000 0.000000 3.209043 0.752608 -0.476411 -0.173125 0.366442 -3.055880 1.031213 3.103947 3.364771 0.000000 0.000000 0.000000 0.475093 0.181376 -1.524622 0.455236 -0.432079 -1.189935 0.329326 3.069175 0.679232 0.000000 0.000000 0.000000 2.669776 0.389938 1.436025 2.637092 1.138441 2.190783 2.767767 -0.162223 1.152701 0.000000 0.000000 0.000000 
